<svg width="48" height="48" viewBox="0 0 48 48" fill="none" xmlns="http://www.w3.org/2000/svg">
<circle cx="24" cy="24" r="24" fill="#3B4048"/>
<path d="M12.75 25.8501C12.9489 25.8501 13.1397 25.9291 13.2803 26.0698C13.421 26.2104 13.5 26.4012 13.5 26.6001V30.3501C13.5 30.7479 13.658 31.1295 13.9393 31.4108C14.2206 31.6921 14.6022 31.8501 15 31.8501H33C33.3978 31.8501 33.7794 31.6921 34.0607 31.4108C34.342 31.1295 34.5 30.7479 34.5 30.3501V26.6001C34.5 26.4012 34.579 26.2104 34.7197 26.0698C34.8603 25.9291 35.0511 25.8501 35.25 25.8501C35.4489 25.8501 35.6397 25.9291 35.7803 26.0698C35.921 26.2104 36 26.4012 36 26.6001V30.3501C36 31.1457 35.6839 31.9088 35.1213 32.4714C34.5587 33.034 33.7956 33.3501 33 33.3501H15C14.2044 33.3501 13.4413 33.034 12.8787 32.4714C12.3161 31.9088 12 31.1457 12 30.3501V26.6001C12 26.4012 12.079 26.2104 12.2197 26.0698C12.3603 25.9291 12.5511 25.8501 12.75 25.8501Z" fill="white"/>
<path d="M23.469 28.781C23.5386 28.8508 23.6214 28.9063 23.7125 28.9441C23.8036 28.9819 23.9013 29.0013 24 29.0013C24.0986 29.0013 24.1963 28.9819 24.2874 28.9441C24.3785 28.9063 24.4613 28.8508 24.531 28.781L29.031 24.281C29.1718 24.1402 29.2509 23.9492 29.2509 23.75C29.2509 23.5508 29.1718 23.3598 29.031 23.219C28.8901 23.0782 28.6991 22.9991 28.5 22.9991C28.3008 22.9991 28.1098 23.0782 27.969 23.219L24.75 26.4395V13.25C24.75 13.0511 24.671 12.8603 24.5303 12.7197C24.3896 12.579 24.1989 12.5 24 12.5C23.8011 12.5 23.6103 12.579 23.4696 12.7197C23.329 12.8603 23.25 13.0511 23.25 13.25V26.4395L20.031 23.219C19.8901 23.0782 19.6991 22.9991 19.5 22.9991C19.3008 22.9991 19.1098 23.0782 18.969 23.219C18.8281 23.3598 18.749 23.5508 18.749 23.75C18.749 23.9492 18.8281 24.1402 18.969 24.281L23.469 28.781Z" fill="white"/>
</svg>
