<svg width="55" height="55" viewBox="0 0 55 55" fill="none" xmlns="http://www.w3.org/2000/svg">
<circle cx="27.5" cy="27.5" r="27.5" fill="#3B4048"/>
<g clip-path="url(#clip0_2319_7840)">
<path d="M27.9999 21.6951L27.014 20.6817C24.6999 18.3029 20.4566 19.1238 18.9249 22.1144C18.2057 23.5211 18.0435 25.5519 19.3566 28.1438C20.6216 30.6394 23.2534 33.6287 27.9999 36.8847C32.7464 33.6287 35.3767 30.6394 36.6431 28.1438C37.9562 25.5506 37.7954 23.5211 37.0749 22.1144C35.5431 19.1238 31.2999 18.3016 28.9857 20.6803L27.9999 21.6951ZM27.9999 38.5416C6.91698 24.6101 21.5085 13.7366 27.7579 19.4882C27.8404 19.5638 27.9215 19.6422 27.9999 19.7233C28.0774 19.6423 28.1582 19.5643 28.2419 19.4896C34.4899 13.7338 49.0827 24.6087 27.9999 38.5416Z" fill="white"/>
</g>
<g clip-path="url(#clip1_2319_7840)">
<path fill-rule="evenodd" clip-rule="evenodd" d="M28.0046 20.8058C34.1068 14.5331 49.3638 25.5097 28.0046 39.6241C6.64533 25.5111 21.9023 14.5331 28.0046 20.8058Z" fill="white"/>
</g>
<defs>
<clipPath id="clip0_2319_7840">
<rect width="22" height="22" fill="white" transform="translate(17 17)"/>
</clipPath>
<clipPath id="clip1_2319_7840">
<rect width="22" height="22" fill="white" transform="translate(17 19)"/>
</clipPath>
</defs>
</svg>
